<svg width="162" height="61" viewBox="0 0 162 61" fill="none" xmlns="http://www.w3.org/2000/svg">
<rect x="143" y="14" width="19" height="5" fill="#07C972"/>
<rect x="157" y="14" width="5" height="19" fill="#07C972"/>
<path d="M2.77734 41V12.207H21.6562V17.2344H8.61328V24.125H20.2852V29.082H8.61328V41H2.77734ZM24.0469 33.1953V19.8359H29.6719V32.5977C29.6719 35.4336 30.6211 36.8516 32.5195 36.8516C33.6445 36.8516 34.5234 36.3359 35.1562 35.3047C35.8125 34.25 36.1406 33.0078 36.1406 31.5781V19.8359H41.7656V41H36.3867V39.1016H36.2812C35.8828 39.8047 35.2383 40.4023 34.3477 40.8945C33.457 41.3867 32.4375 41.6328 31.2891 41.6328C30.6797 41.6328 30.082 41.5742 29.4961 41.457C28.9336 41.3633 28.3008 41.1406 27.5977 40.7891C26.918 40.4141 26.3203 39.9336 25.8047 39.3477C25.3125 38.7617 24.8906 37.9414 24.5391 36.8867C24.2109 35.8086 24.0469 34.5781 24.0469 33.1953ZM46.125 41V19.8359H51.5039V21.9102H51.5391C52.6875 20.1055 54.4805 19.2031 56.918 19.2031C61.582 19.2031 63.9141 21.9453 63.9141 27.4297V41H58.3242V28.0977C58.3242 26.5977 58.1133 25.543 57.6914 24.9336C57.2695 24.3008 56.6016 23.9844 55.6875 23.9844C54.5156 23.9844 53.5664 24.4648 52.8398 25.4258C52.1133 26.3633 51.75 27.5469 51.75 28.9766V41H46.125ZM66.9023 30.3828C66.9023 26.8906 67.7461 24.1602 69.4336 22.1914C71.1445 20.1992 73.3359 19.2031 76.0078 19.2031C77.9766 19.2031 79.5586 19.9297 80.7539 21.3828V11.3281H86.3438V41H80.8945V38.8906C80.4727 39.6172 79.8047 40.2617 78.8906 40.8242C77.9766 41.3633 77.0039 41.6328 75.9727 41.6328C74.8477 41.6328 73.7578 41.4219 72.7031 41C71.6719 40.5781 70.7109 39.9453 69.8203 39.1016C68.9297 38.2578 68.2148 37.0859 67.6758 35.5859C67.1602 34.0859 66.9023 32.3516 66.9023 30.3828ZM72.668 30.3828C72.668 32.4688 73.0312 34.0742 73.7578 35.1992C74.5078 36.3008 75.5156 36.8516 76.7812 36.8516C78.0234 36.8516 78.9961 36.2773 79.6992 35.1289C80.4258 33.9805 80.7891 32.3984 80.7891 30.3828C80.7891 28.4609 80.4492 26.9141 79.7695 25.7422C79.0898 24.5703 78.0938 23.9844 76.7812 23.9844C75.4219 23.9844 74.3906 24.5703 73.6875 25.7422C73.0078 26.8906 72.668 28.4375 72.668 30.3828ZM89.7891 30.3477C89.7891 26.9023 90.75 24.1836 92.6719 22.1914C94.5938 20.1992 96.9727 19.2031 99.8086 19.2031C102.551 19.2031 104.871 20.2344 106.77 22.2969C108.691 24.3359 109.652 27.0195 109.652 30.3477C109.652 31.0273 109.617 31.707 109.547 32.3867H95.4844C95.4844 33.7227 95.9062 34.8594 96.75 35.7969C97.5938 36.7109 98.7305 37.168 100.16 37.168C101.215 37.168 102.129 36.9102 102.902 36.3945C103.699 35.8555 104.297 35.1758 104.695 34.3555L109.371 36.0078C108.668 37.5781 107.52 38.9141 105.926 40.0156C104.332 41.0938 102.352 41.6328 99.9844 41.6328C97.0078 41.6328 94.5586 40.6133 92.6367 38.5742C90.7383 36.5352 89.7891 33.793 89.7891 30.3477ZM95.5195 28.5547H103.922C103.922 27.1953 103.559 26.0352 102.832 25.0742C102.129 24.0898 101.121 23.5977 99.8086 23.5977C98.4727 23.5977 97.418 24.0898 96.6445 25.0742C95.8945 26.0586 95.5195 27.2188 95.5195 28.5547ZM110.426 41L117.914 30.207L110.777 19.8359H117.598L119.742 23.8789C120.375 25.1211 120.832 25.9766 121.113 26.4453H121.219C121.242 26.3984 121.43 26.0352 121.781 25.3555C122.133 24.6758 122.391 24.1836 122.555 23.8789L124.734 19.8359H131.555L124.418 30.207L131.906 41H125.297L122.801 36.6406C122.215 35.5859 121.688 34.6484 121.219 33.8281H121.113C120.363 35.1875 119.836 36.125 119.531 36.6406L117.035 41H110.426Z" fill="#0B1C2E"/>
</svg>
